# xmcd
#
# Track frame offsets: 
#        182
#        18320
#        29882
#        44232
#        56657
#        75632
#        89820
#        102470
#        116182
#        130545
#        141432
#        154007
#        164682
#        177320
#
# Disc length: 2524 seconds
#
# Revision: 1
# Processed by: cddbd v1.5.2PL0 Copyright (c) Steve Scherf et al.
# Submitted via: ExactAudioCopy v0.95b2
#
DISCID=d109da0e
DTITLE=Various Artist - Blues Collection
DYEAR=1900
DGENRE=
TTITLE0=Diney Brown Blues
TTITLE1=Person To Person
TTITLE2=The Wellfare Blues
TTITLE3=Fanny Mae
TTITLE4=Best Friend Blues
TTITLE5=De Prit and Betty
TTITLE6=Baby I Got News Yor You
TTITLE7=You´re Still My Baby
TTITLE8=Sherry Red
TTITLE9=Your Poodle Dog
TTITLE10=Clean Head Blues
TTITLE11=You Got Me Movin'
TTITLE12=Ain´t Gonna Let No Woman
TTITLE13=Linda Lu
EXTD=
EXTT0=Big Joe Turner
EXTT1=Eddie Vinson
EXTT2=nyles Jones
EXTT3=johnny otis
EXTT4=big daddy rucker
EXTT5=nyles jones
EXTT6=jonny otis
EXTT7=big joe turner
EXTT8=jonny otis
EXTT9=nyles jones
EXTT10=eddie vinson
EXTT11=big daddy rucker
EXTT12=nyles jones
EXTT13=johnny otis
PLAYORDER=
